<?xml version="1.0" standalone="no"?><!DOCTYPE svg PUBLIC "-//W3C//DTD SVG 1.1//EN" "http://www.w3.org/Graphics/SVG/1.1/DTD/svg11.dtd"><svg t="1617346142499" class="icon" viewBox="0 0 1024 1024" version="1.1" xmlns="http://www.w3.org/2000/svg" p-id="4945" width="128" height="128" xmlns:xlink="http://www.w3.org/1999/xlink"><defs><style type="text/css"></style></defs><path d="M512 64c143.042 0 257 115.958 257 259 0 72.553-32.875 138.255-98.624 197.104-6.584 5.893-7.144 16.008-1.25 22.592a16 16 0 0 0 6.744 4.469l125.96 43.076C850.38 606.844 883 652.476 883 703.785V832c0 70.692-57.308 128-128 128H269c-70.692 0-128-57.308-128-128V703.785c0-51.309 32.621-96.941 81.17-113.544l125.96-43.076c8.361-2.86 12.821-11.956 9.962-20.317a16 16 0 0 0-4.468-6.744C287.874 461.254 255 395.554 255 323c0-143.042 113.958-259 257-259z m0 603c-19.882 0-36 16.118-36 36v88c0 19.882 16.118 36 36 36s36-16.118 36-36v-88c0-19.882-16.118-36-36-36z" fill="#333333" p-id="4946"></path></svg>